# xmcd
#
# Track frame offsets: 
#        150
#        13196
#        23698
#        38133
#        54451
#        71216
#        93256
#        106186
#        115282
#        131600
#        148120
#        160818
#        180751
#        201570
#        214957
#        232905
#
# Disc length: 3610 seconds
#
# Revision: 0
# Processed by: cddbd v1.5.2PL0 Copyright (c) Steve Scherf et al.
# Submitted via: ExactAudioCopy v0.99pb4
#
DISCID=dd0e1810
DTITLE=Nirvana - Fire Extinguisher
DYEAR=1992
DGENRE=Alt. Rock
TTITLE0=Negative Creep
TTITLE1=Been A Son
TTITLE2=On A Plain
TTITLE3=Blew
TTITLE4=Come As You Are
TTITLE5=Lithium
TTITLE6=Breed
TTITLE7=Sliver
TTITLE8=Drain You
TTITLE9=About A Girl
TTITLE10=School
TTITLE11=Aneurysm
TTITLE12=Love Buzz
TTITLE13=Polly
TTITLE14=Territorial Pissings
TTITLE15=Smells Like Teen Spirit
EXTD=
EXTT0=
EXTT1=
EXTT2=
EXTT3=
EXTT4=
EXTT5=
EXTT6=
EXTT7=
EXTT8=
EXTT9=
EXTT10=
EXTT11=
EXTT12=
EXTT13=
EXTT14=
EXTT15=
PLAYORDER=
